<?xml version="1.0" standalone="no"?>
<!DOCTYPE svg PUBLIC "-//W3C//DTD SVG 1.1//EN" "http://www.w3.org/Graphics/SVG/1.1/DTD/svg11.dtd" >
<svg xmlns="http://www.w3.org/2000/svg" width="100%" height="100%">
<metadata>
Created by FontXChange 20110222 at Sat Mar 17 09:31:26 2012
 By Giovanni Lovato
Copyright (c) 2004-2005 by Johan Winge
</metadata>
<defs>
<font id="TengwarAnnatarAlt-BoldItalic" horiz-adv-x="0" >
  <font-face 
    font-family="Tengwar Annatar Alt"
    font-weight="700"
    font-style="italic"
    font-stretch="normal"
    units-per-em="2048"
    panose-1="2 0 8 3 0 0 0 0 0 0"
    ascent="1638"
    descent="-410"
    x-height="897"
    bbox="-2148 -2279 2284 2630"
    underline-thickness="130"
    underline-position="-135"
    unicode-range="U+0020-2039"
  />
<missing-glyph 
 />
    <glyph glyph-name=".notdef" 
 />
    <glyph glyph-name=".null" 
 />
    <glyph glyph-name="nonmarkingreturn" horiz-adv-x="682" 
 />
    <glyph glyph-name="space" unicode=" " horiz-adv-x="610" 
 />
    <glyph glyph-name="exclam" unicode="!" horiz-adv-x="1376" 
d="M-1603 -2279q-19 0 -19 17q0 37 68 103l121 112q259 247 444 454l81 93q467 537 797 1170q86 165 160 332q51 116 147 377l161 459q160 470 265 705q195 439 466 734q69 76 146 146q89 80 133 80q19 0 19 -16q0 -39 -113 -150q-48 -46 -56 -55q-164 -177 -290 -424
q-147 -288 -342 -857l-126 -364l-4 -11l77 63q42 32 93 67q202 129 334 132q158 0 244 -98q64 -72 64 -177q0 -124 -109 -272q-84 -113 -222 -219q-155 -118 -220 -139q-10 -3 -17 -3q-18 0 -18 17q0 34 63 98q42 43 93 74q77 46 105 70q97 83 97 199q0 114 -87 183
q-74 59 -184 59q-118 0 -255 -120q-15 -13 -28 -26q-65 -63 -109 -147q-30 -56 -63 -139q-58 -148 -163 -359l-84 -165q-412 -765 -1049 -1445l-50 -54q-55 -59 -246 -246l-166 -156l-67 -58q-24 -18 -48 -30q-28 -14 -43 -14z" />
    <glyph glyph-name="numbersign" unicode="#" 
d="M-914 1857q0 52 38 70q12 5 26 5q76 0 98 -129q6 -38 6 -81q0 -82 -20 -188q-7 -37 -13 -48q-10 -20 -30 -20q-25 0 -34 39l-25 166q-13 68 -35 132q-11 35 -11 54zM-616 1465q-28 5 -31 37q0 38 40 191q19 72 31 100q50 109 111 109q48 0 62 -42q5 -12 5 -25
q0 -26 -21 -60q-78 -128 -126 -219l-21 -40q-19 -37 -32 -45q-9 -6 -18 -6zM-1069 1736q0 47 37 65q13 6 27 6q84 0 125 -179q20 -87 20 -149q0 -116 -33 -126q-5 -1 -10 -1q-23 0 -32 30l-27 100q-4 13 -9 26q-14 36 -68 144q-30 58 -30 84zM-734 1372q-21 0 -28 24
q-2 6 -2 12q0 57 33 256q11 66 16 81q12 31 38 38h8h4q30 0 40 -33q3 -10 3 -21q0 -48 -47 -223q-29 -107 -42 -122q-10 -12 -23 -12zM-578 1394q0 92 71 217q64 111 127 143q18 9 33 9q41 0 58 -35q7 -14 7 -31q0 -41 -47 -89l-44 -43l-61 -62q-43 -49 -74 -119
q-13 -27 -26 -31q-5 -2 -11 -2q-26 0 -32 30q-1 6 -1 13z" />
    <glyph glyph-name="dollar" unicode="$" 
d="M-202 1761q43 0 59 -36q6 -12 6 -25q0 -43 -68 -92l-82 -55q-252 -174 -527 -345q-181 -112 -203 -112q-25 0 -31 21q-1 4 -1 8q0 19 31 45q242 202 543 419l212 150q33 22 61 22zM147 1761q42 0 58 -36q6 -12 6 -25q0 -43 -68 -92l-82 -55q-252 -174 -527 -345
q-181 -112 -203 -112q-25 0 -31 21q-1 4 -1 8q0 19 31 45q254 210 543 419l212 150q33 22 62 22z" />
    <glyph glyph-name="ampersand" unicode="&#x26;" 
d="M-821 1457q-70 0 -108 56q-25 37 -25 85q0 112 120 220q108 98 234 110h26q99 -4 160 -65q89 51 171 51q110 0 173 -76q47 -56 47 -136q0 -226 -402 -525q-97 -72 -219 -148q-452 -279 -468 -286q-19 -10 -33 -10q-18 0 -18 16q0 35 62 87q10 8 17 13q8 5 228 141
l242 148q173 107 259 180q182 155 182 281q0 115 -109 160q-40 17 -74 17h-8q7 -22 7 -54q0 -289 -635 -647q-546 -301 -611 -334q-19 -8 -29 -8q-18 0 -18 16q0 36 63 88q11 8 18 13t291 160l374 206q234 134 323 235q75 85 75 163q0 48 -33 97q-52 79 -156 79
q-90 0 -105 -52q-4 -14 -4 -36q0 -64 49 -93q23 -14 49 -14h13q38 22 54 22q17 0 17 -16q0 -39 -62 -88q-72 -56 -137 -56z" />
    <glyph glyph-name="period" unicode="." horiz-adv-x="1288" 
d="M86 306q0 176 151 342q124 136 289 202q96 38 177 38q182 0 253 -156q35 -76 35 -165q0 -169 -136 -323l-7 -9q1 0 10 -1q38 -2 129 -25q68 -18 118 -18q141 0 221 53q41 28 48 31q13 4 26 4q18 0 18 -16q0 -30 -57 -92q-104 -113 -250 -160q-41 -14 -84 -20
q-46 -7 -108 -7q-57 0 -172 27q-71 17 -110 17q-49 0 -138 -24q-77 -20 -140 -20q-122 0 -201 98q-72 90 -72 224zM763 389q0 147 -89 231q-65 61 -148 61q-81 0 -169 -41q-40 -72 -43 -143v-18q0 -131 79 -216q66 -71 156 -71t171 40q43 65 43 157z" />
    <glyph glyph-name="zero" unicode="0" 
d="M-112 350q0 45 89 122q75 61 110 68h11q17 0 17 -16q0 -33 -66 -101q-77 -78 -130 -89q-7 -1 -12 -1q-18 0 -19 17z" />
    <glyph glyph-name="one" unicode="1" horiz-adv-x="1376" 
d="M-130 654q0 32 56 93q98 107 240 144q51 13 103 15h50q42 0 55 -3q20 -5 40 -18q67 -44 71 -142q1 -6 1 -11q0 -42 -17 -104l123 98q216 162 382 162q155 0 240 -99q63 -73 63 -173q0 -118 -97 -258q-94 -137 -263 -257q-130 -93 -195 -116q-14 -5 -22 -5q-19 0 -19 16
q0 36 64 100q48 49 105 80q74 41 103 64q97 80 97 199q0 108 -82 178q-75 63 -185 63q-80 0 -163 -51l-29 -19q-98 -65 -159 -157q-35 -54 -128 -237l-125 -242q-637 -1174 -1416 -1952l-66 -65q-155 -150 -211 -192q-59 -44 -90 -44q-18 0 -18 15q0 34 59 96l45 43
q825 756 1489 1985l88 165q87 165 151 342q48 131 48 192q0 74 -45 113q-30 26 -77 26h-12q-120 0 -165 -31q-28 -20 -38 -23q-14 -5 -32 -7q-19 -2 -19 17z" />
    <glyph glyph-name="two" unicode="2" horiz-adv-x="2025" 
d="M-130 654q0 32 56 93q98 107 240 144q51 13 103 15h50q42 0 55 -3q20 -5 40 -18q67 -44 72 -142v-11q0 -28 -10 -77q124 109 206 158q125 75 224 75q152 0 235 -127q38 -59 52 -133q136 136 276 208q104 53 187 53q124 0 204 -85q74 -78 74 -196q0 -194 -208 -395
q-131 -126 -277 -199q-69 -34 -101 -34q-17 0 -18 16q0 35 63 99q66 68 129 90q137 50 171 158q13 41 13 91q0 122 -89 193q-66 53 -151 53q-83 0 -156 -62q-16 -13 -28 -27q-44 -50 -111 -173q-47 -86 -76 -127q-72 -102 -181 -187q-139 -109 -267 -119q-10 -1 -27 -1
q-163 0 -163 119q0 82 73 130q43 28 87 28q40 0 76 -27q40 -30 73 -37q23 -5 51 -5q61 0 91 22q5 4 8 9q52 74 52 179q0 127 -90 212q-53 50 -115 62q-23 5 -46 5q-197 0 -383 -406q-44 -94 -111 -219q-650 -1222 -1453 -2027l-73 -72q-155 -150 -211 -192q-59 -44 -90 -44
q-18 0 -18 15q0 34 59 96l45 43q825 756 1489 1985l88 165q87 165 151 342q48 131 48 192q0 74 -45 113q-30 26 -77 26h-12q-120 0 -165 -31q-28 -20 -38 -23q-14 -5 -32 -7q-19 -2 -19 17z" />
    <glyph glyph-name="three" unicode="3" horiz-adv-x="1363" 
d="M35 -16q-17 0 -17 16q0 20 20 45q58 72 106 181q23 52 46 117q24 66 130 410q157 512 306 827q100 214 214 384q144 216 321 391l90 84q74 63 115 63q19 0 19 -15q0 -33 -52 -86l-114 -115q-100 -106 -186 -234q-141 -209 -250 -470q-128 -303 -286 -827l-32 -106l-7 -23
l133 105q210 157 373 157q149 0 234 -93q68 -74 68 -183q0 -115 -99 -257q-128 -185 -375 -328q-82 -47 -106 -47q-18 0 -18 16q0 34 60 96q50 52 111 85q116 62 150 107q3 4 6 9q44 66 44 146q0 107 -82 177q-74 64 -184 64q-201 0 -374 -273q-22 -34 -102 -179
q-19 -34 -30 -50q-71 -106 -161 -165q-44 -29 -71 -29z" />
    <glyph glyph-name="four" unicode="4" horiz-adv-x="2088" 
d="M35 -16q-17 0 -17 16q0 20 20 45q58 72 106 181q23 52 46 117q24 66 130 410q157 512 306 827q100 214 214 384q144 216 321 391l90 84q74 63 115 63q19 0 19 -15q0 -33 -52 -86l-114 -115q-100 -106 -186 -234q-141 -209 -250 -470q-128 -303 -286 -827l-30 -99
q258 233 429 233q156 0 237 -132q35 -57 49 -129l114 98q201 163 350 163q122 0 203 -84q75 -79 75 -197q0 -241 -375 -547l-38 -31q-65 -51 -100 -51q-16 0 -17 17q0 45 123 153q99 87 104 91q9 10 15 17q60 75 60 177q0 122 -89 193q-66 53 -151 53q-87 0 -167 -72
q-10 -9 -17 -17q-42 -49 -108 -167q-74 -134 -137 -204l-5 -6q-194 -213 -388 -229q-13 -1 -26 -1q-145 0 -160 94q-1 10 -1 19q0 108 97 149q35 15 63 15q38 0 74 -27q42 -30 76 -38q22 -4 49 -4q62 0 92 22q5 4 8 9q52 74 52 179q0 90 -49 166q-47 72 -130 101
q-35 11 -71 11q-135 0 -264 -190q-46 -68 -112 -199q-57 -112 -120 -184q-72 -81 -145 -115q-19 -8 -32 -8z" />
    <glyph glyph-name="five" unicode="5" horiz-adv-x="2015" 
d="M-112 637q-19 -2 -19 17q0 30 54 90q97 108 236 146q49 13 100 15q9 1 59 1q51 0 71 -8q7 -4 17 -9q60 -35 75 -118q3 -19 3 -39q0 -24 -7 -72v-1q2 0 28 24q53 51 146 111q144 95 252 95q153 0 236 -129q37 -59 51 -132q134 134 274 206q105 55 190 55q117 0 198 -79
q79 -78 79 -194q0 -169 -154 -348q-131 -154 -310 -241q-36 -18 -72 -31q-42 -16 -56 -16q-15 0 -18 16q0 33 57 94q68 73 140 97q185 61 185 247q0 156 -132 219q-56 28 -107 28q-88 0 -167 -72q-11 -10 -19 -19q-46 -53 -114 -177q-60 -109 -102 -161q-171 -211 -364 -258
q-44 -10 -82 -10q-154 0 -162 107v10q0 64 50 114q46 46 109 46q42 0 78 -28q36 -29 66 -36q22 -5 52 -5q77 0 102 29q2 2 3 4q52 80 52 176q0 166 -131 242q-64 38 -120 38q-108 0 -208 -123q-62 -76 -159 -250q-111 -199 -226 -286q-52 -38 -87 -38q-17 0 -17 16
q0 23 32 62q59 73 90 134q81 158 109 297q8 38 8 64q0 77 -47 116q-30 25 -75 25h-12q-123 0 -167 -31q-29 -20 -38 -24q-12 -4 -30 -6z" />
    <glyph glyph-name="six" unicode="6" horiz-adv-x="1366" 
d="M-112 637q-19 -2 -19 17q0 30 54 90q97 108 236 146q49 13 100 15q9 1 59 1q51 0 71 -8q7 -4 17 -9q61 -35 75 -121q3 -18 3 -36q0 -41 -14 -102l18 15q131 115 269 184q75 38 136 51q35 8 77 8q156 0 242 -101q62 -73 62 -172q0 -191 -224 -402q-134 -127 -279 -202
q-59 -32 -81 -32q-18 0 -18 17q0 35 62 99q52 53 109 82q149 74 186 168q17 41 17 94q0 110 -83 180q-73 61 -183 61q-120 0 -245 -109q-67 -59 -149 -200q-86 -147 -111 -185q-69 -99 -146 -157q-60 -45 -94 -45q-17 0 -17 16q0 23 32 62q59 73 90 134q81 158 109 297
q8 38 8 64q0 77 -47 116q-30 25 -75 25h-12q-123 0 -167 -31q-29 -20 -38 -24q-12 -4 -30 -6z" />
    <glyph glyph-name="seven" unicode="7" 
d="M-112 350q0 45 89 122q75 61 110 68h11q17 0 17 -16q0 -33 -66 -101q-77 -78 -130 -89q-7 -1 -12 -1q-18 0 -19 17z" />
    <glyph glyph-name="eight" unicode="8" 
d="M-112 350q0 45 89 122q75 61 110 68h11q17 0 17 -16q0 -33 -66 -101q-77 -78 -130 -89q-7 -1 -12 -1q-18 0 -19 17z" />
    <glyph glyph-name="nine" unicode="9" horiz-adv-x="1028" 
d="M-459 1852q-1 45 83 118q101 89 211 120q40 12 74 12q161 0 245 -179q19 -41 38 -97q50 -151 155 -543q103 -387 186 -586q94 -228 219 -390q93 -120 183 -120t163 61l57 49q33 24 66 24q20 0 20 -19q0 -40 -83 -118q-114 -106 -247 -155q-74 -28 -137 -28
q-109 0 -203 115l-15 19q-85 109 -157 254l-14 29q-128 -228 -329 -340q-121 -67 -213 -67q-99 0 -163 60q-25 24 -25 37q0 31 56 89q69 74 127 77q9 0 34 -24q50 -49 116 -53h16q109 0 175 95q66 97 66 277q0 136 -44 327q-19 84 -50 200l-38 145q-106 396 -165 521
q-53 114 -123 141q-31 13 -72 13q-56 0 -108 -41q-41 -31 -58 -36q-12 -4 -24 -4q-20 0 -22 13v4z" />
    <glyph glyph-name="less" unicode="&#x3c;" horiz-adv-x="1376" 
d="M238 215q62 -16 127 -27v0l-26 60q-18 55 -18 114q0 130 105 267q115 149 290 217q109 42 224 42q122 0 203 -81q11 -11 14 -11q0 37 125 394q61 173 94 252q223 536 564 914q210 233 301 268q14 6 24 6q19 0 19 -17q0 -32 -65 -98l-120 -120q-436 -460 -691 -1352
l-13 -45q-103 -361 -194 -806q-16 -85 -112 -158q-65 -50 -102 -50q-16 0 -17 12v1q0 6 -118 16q-92 7 -195 7q-58 0 -219 -18q-76 -8 -125 -8q-92 0 -182 18q-72 15 -72 36q0 47 79 112q64 52 100 55zM523 509q0 -131 89 -218q86 -84 215 -84q108 0 178 -8h5q40 170 40 187
q0 105 -61 197q-71 110 -184 118q-9 1 -27 1q-120 0 -189 -40q-32 -18 -43 -43q-23 -46 -23 -110z" />
    <glyph glyph-name="at" unicode="@" horiz-adv-x="2095" 
d="M-1603 -2279q-19 0 -19 17q0 37 68 103l121 112q259 247 444 454l81 93q467 537 797 1170q86 165 160 332q51 116 147 377l161 459q160 470 265 705q195 439 466 734q69 76 146 146q89 80 133 80q19 0 19 -16q0 -39 -113 -150q-48 -46 -56 -55q-164 -177 -290 -424
q-147 -288 -342 -857l-105 -304q-13 -38 -14 -39v-1q1 0 4 3q140 123 237 175q102 53 188 53q159 0 240 -133q34 -56 47 -127q135 135 275 207q105 54 190 54q121 0 201 -84q75 -77 75 -192v-13q0 -103 -81 -233q-59 -94 -153 -181q-145 -135 -183 -163q-56 -43 -88 -43
q-18 0 -18 17q0 42 123 154q96 88 107 99q5 6 8 10q58 75 58 172q0 121 -87 193q-67 56 -153 56q-120 0 -214 -131q-28 -38 -101 -167q-34 -60 -57 -93q-67 -95 -172 -179q-135 -108 -259 -125q-18 -2 -44 -2q-162 0 -162 118q0 100 94 142q36 17 66 17q39 0 75 -28
q38 -29 69 -36q22 -5 49 -5q96 0 121 55l7 17q30 61 30 140q0 172 -138 245q-61 32 -114 32q-120 0 -246 -160q-51 -65 -90 -141q-15 -29 -69 -162q-58 -144 -151 -329l-84 -165q-412 -765 -1049 -1445l-50 -54q-55 -59 -246 -246l-166 -156l-67 -58q-24 -18 -48 -30
q-28 -14 -43 -14z" />
    <glyph glyph-name="C" unicode="C" 
d="M-304 1857q0 50 38 69q12 6 27 6q74 0 96 -128q7 -39 7 -82q0 -82 -20 -188q-7 -37 -13 -48q-10 -20 -29 -20q-25 0 -35 40l-26 171q-13 65 -33 126q-12 34 -12 54zM-6 1465q-24 0 -30 26q-1 4 -1 9q0 39 39 188q20 76 33 105q49 109 110 109q48 0 62 -41q5 -12 5 -26
q0 -26 -22 -61q-79 -132 -118 -204l-28 -54q-16 -32 -21 -37q-12 -14 -29 -14zM-458 1732q0 54 39 71q11 4 24 4q67 0 111 -125q34 -98 34 -200q0 -116 -31 -128q-5 -2 -11 -2q-19 0 -25 16l-36 111q-30 82 -82 185q-23 44 -23 68zM-124 1372q-25 5 -29 38q0 46 31 245
q11 74 17 90q13 32 38 38h8h4q36 0 42 -41q1 -6 1 -13q0 -50 -48 -228q-29 -105 -41 -117q-10 -12 -23 -12zM32 1394q0 85 67 207q64 118 129 152q19 10 36 10q43 0 59 -38q5 -12 5 -28q0 -47 -57 -102l-81 -75q-60 -62 -85 -130q-14 -39 -40 -39q-24 0 -32 29q-1 7 -1 14z
" />
    <glyph glyph-name="D" unicode="D" 
d="M-427 1857q0 50 38 69q12 6 27 6q74 0 96 -128q7 -39 7 -82q0 -75 -20 -185q-7 -41 -13 -51q-12 -20 -29 -20q-25 0 -34 37l-26 169q-13 67 -34 131q-12 34 -12 54zM-129 1465q-28 0 -30 37q0 39 38 188q20 74 33 103q49 109 110 109q48 0 63 -40q4 -12 4 -26
q0 -26 -21 -61q-80 -132 -127 -223l-19 -36q-17 -33 -26 -41q-11 -10 -25 -10zM-581 1732q0 55 40 71q11 4 23 4q82 0 123 -169q22 -88 22 -156q0 -117 -31 -128q-5 -2 -11 -2q-19 0 -25 16l-36 111q-30 82 -82 185q-23 44 -23 68zM-247 1372q-25 5 -29 38q0 45 32 246
q12 74 17 89q12 32 37 38h8h5q33 0 40 -37q2 -8 2 -17q0 -47 -45 -219q-30 -112 -44 -126q-10 -12 -23 -12zM-91 1392q0 88 68 211q64 117 128 150q19 10 36 10q43 0 59 -38q5 -12 5 -28q0 -47 -57 -102l-81 -75q-60 -62 -85 -130q-14 -39 -40 -39q-17 0 -27 18q-6 9 -6 23z
" />
    <glyph glyph-name="E" unicode="E" 
d="M-566 1857q0 50 36 69q13 6 28 6q76 0 98 -129q6 -38 6 -81q0 -82 -20 -188q-7 -37 -13 -48q-10 -20 -30 -20q-25 0 -34 40l-26 170q-13 65 -33 127q-12 34 -12 54zM-268 1465q-24 0 -30 26q-1 4 -1 9q0 38 37 182q19 79 34 111q49 109 111 109q49 0 63 -43q4 -11 4 -24
q0 -25 -21 -60q-79 -128 -126 -219l-21 -40q-19 -37 -32 -45q-9 -6 -18 -6zM-721 1736q0 48 39 66q12 5 25 5q84 0 125 -180q20 -86 20 -148q0 -114 -31 -125q-5 -2 -11 -2q-20 0 -26 14l-32 106q-30 84 -85 192q-24 46 -24 72zM-386 1372q-21 0 -28 24q-2 6 -2 12
q0 57 33 256q11 66 16 81q12 31 38 38h8h4q29 0 39 -30q4 -10 4 -24q0 -50 -48 -228q-29 -105 -41 -117q-10 -12 -23 -12zM-230 1394q0 85 67 207q64 118 129 152q19 10 36 10q43 0 59 -38q5 -12 5 -28q0 -46 -60 -104l-82 -77q-59 -62 -81 -126q-14 -39 -40 -39t-32 30
q-1 6 -1 13z" />
    <glyph glyph-name="F" unicode="F" 
d="M-530 1095q-30 0 -31 30q0 15 22 42l14 16l262 285q159 168 264 265q12 12 16 15q28 24 59 24q39 0 55 -35q6 -13 6 -27q0 -36 -43 -79l-17 -16q-238 -228 -441 -399q-143 -121 -166 -121zM-182 1095q-30 0 -30 30q0 18 16 36l281 307q159 168 264 265q12 12 16 15
q28 24 59 24q39 0 55 -34q6 -13 6 -28q0 -36 -43 -79l-17 -16q-189 -181 -434 -391q-111 -96 -147 -120q-14 -9 -26 -9z" />
    <glyph glyph-name="H" unicode="H" 
d="M-960 733q-19 0 -19 16q0 11 7 24q18 30 347 514q349 510 616 594q48 15 93 15h5q60 0 118 -37l10 -7q104 44 167 44q99 0 159 -73q50 -60 50 -146q0 -123 -106 -235q-88 -94 -190 -120q-29 -8 -54 -8q-82 0 -125 59q-23 34 -23 75q0 85 85 154q49 40 78 41q18 0 18 -17
q0 -12 -19 -39q-13 -19 -13 -33q0 -35 28 -67q31 -35 84 -35q43 0 58 18q29 41 29 103q0 58 -35 111q-47 74 -140 74q-167 0 -423 -363l-45 -64l-289 -431q-61 -87 -86 -115q-39 -44 -81 -51q-5 -1 -9 -1q-18 0 -18 16q0 11 7 24l379 560q162 233 306 366l43 39
q-40 20 -80 20q-169 0 -419 -358l-232 -339l-165 -244q-11 -14 -27 -32q-40 -43 -80 -51q-5 -1 -9 -1z" />
    <glyph glyph-name="J" unicode="J" 
d="M229 1789l1 -33q0 -281 -614 -674l-17 -11q-523 -326 -525 -327q-19 -11 -35 -11q-18 0 -18 16q0 31 50 77q12 11 24 20l578 362q169 109 254 186q154 141 154 257q0 53 -34 102q-50 75 -151 75q-57 0 -86 -21q-5 -4 -7 -7q-18 -30 -18 -68q0 -47 37 -84q28 -27 63 -27
q3 0 33 17q21 12 36 12q18 0 18 -16q0 -37 -60 -88q-73 -62 -141 -63q-68 0 -108 55q-27 38 -27 90q0 93 84 190q91 106 214 138q41 10 81 10q81 -1 138 -47q6 -5 8 -5l59 19q27 6 58 6q113 0 176 -77q44 -55 44 -133q0 -210 -330 -498q-93 -81 -204 -160l-441 -306
q-28 -19 -30 -20q-21 -12 -36 -12q-18 0 -18 17q0 25 41 68q13 14 26 23l458 319q385 275 385 464q0 102 -89 152q-25 13 -31 13z" />
    <glyph glyph-name="M" unicode="M" 
d="M-201 1332q-95 0 -128 96q-9 28 -10 52q0 113 108 221q85 85 181 115q38 11 74 11q98 0 159 -54l16 -15q34 11 79 11q112 0 173 -81q42 -55 42 -130q0 -179 -220 -417q-93 -100 -181 -166l-308 -222q-31 -20 -49 -20q-19 0 -19 15q0 43 116 129l222 158q31 23 57 44
q91 75 159 176q74 109 74 196q0 106 -93 159q-11 -108 -74 -208q-17 -28 -39 -57q-139 -186 -355 -342l-361 -248q-35 -22 -53 -22t-18 16q0 29 38 67q11 11 23 20l405 283q73 53 138 122q111 117 136 203q9 33 9 66q0 95 -74 147q-47 33 -106 33q-91 0 -106 -63
q-3 -16 -3 -37q0 -64 51 -102q24 -18 45 -18l46 28q17 9 31 9q17 0 18 -15q0 -38 -60 -91q-78 -66 -143 -69z" />
    <glyph glyph-name="N" unicode="N" 
d="M-612 733q-19 0 -19 16q0 18 186 377l35 67q197 360 421 495q102 63 186 63q68 0 104 -27q11 -9 18 -10q74 37 142 37q104 0 165 -80q45 -60 45 -141q0 -132 -109 -245q-87 -88 -186 -112q-24 -5 -46 -5q-76 0 -119 51q-28 34 -28 79q0 79 82 146q50 41 78 41
q17 0 17 -16q0 -17 -18 -40q-10 -13 -10 -25q1 -34 29 -65q31 -33 84 -33q47 0 62 36q3 7 8 27q7 27 7 54q0 93 -66 149q-47 40 -110 40q-173 0 -410 -454q-14 -27 -128 -260q-31 -63 -43 -80q-33 -45 -76 -71q-23 -14 -40 -14q-19 0 -19 17q0 20 205 412l17 31
q121 224 275 378q26 26 26 27q-10 10 -60 14q-5 1 -8 1q-146 0 -324 -303q-53 -88 -176 -337q-80 -160 -112 -192q-46 -45 -85 -48z" />
    <glyph glyph-name="Q" unicode="Q" horiz-adv-x="1341" 
d="M-1603 -2279q-19 0 -19 17q0 37 68 103l121 112q259 247 444 454l81 93q472 542 802 1179q68 131 128 263q83 181 235 606l100 290q160 470 265 705q195 439 466 734q69 76 146 146q89 80 133 80q19 0 19 -16q0 -39 -113 -150q-48 -46 -56 -55q-164 -177 -290 -424
q-147 -288 -342 -857l-126 -364l-4 -11l77 63q42 32 93 67q202 129 334 132q158 0 244 -98q64 -72 64 -177q0 -170 -182 -360q-91 -96 -206 -160q-68 -37 -129 -51q-14 -3 -35 -15q-17 -9 -94 -9h-44q-248 0 -373 -19l-105 -213q-129 -246 -284 -488l-126 -189
q-306 -443 -678 -836l-290 -294l-166 -156l-67 -58q-24 -18 -48 -30q-28 -14 -43 -14zM1039 439q0 113 -87 182q-74 59 -186 59q-74 0 -172 -60q-166 -102 -253 -304l-56 -139q149 21 466 28q15 1 19 1q269 12 269 233z" />
    <glyph glyph-name="R" unicode="R" 
d="M-688 1095q-27 4 -30 29q0 14 9 26q37 48 377 333q259 217 293 234q21 10 41 10q43 0 59 -36q5 -11 5 -24q0 -32 -35 -65q-28 -27 -184 -144l-379 -270l-104 -71q-36 -22 -52 -22zM-340 1095q-27 4 -30 29q0 14 9 26q36 46 369 326q258 217 301 241q21 10 41 10
q44 0 59 -37q5 -11 5 -24q0 -32 -34 -64q-27 -25 -185 -144q-340 -253 -483 -338q-42 -25 -52 -25z" />
    <glyph glyph-name="U" unicode="U" 
d="M-713 1628q0 105 103 207q93 91 202 118q31 7 59 7q90 0 146 -41l14 -10q65 32 135 32q109 0 172 -75q46 -56 46 -136q0 -215 -349 -502q-89 -73 -196 -146l-484 -320q-26 -17 -28 -18q-20 -11 -35 -11q-17 0 -17 16q0 31 48 76q19 17 43 33l475 314q147 102 219 167
q175 158 175 286q0 93 -80 148q-34 24 -55 24l-2 1q4 -23 4 -44q0 -221 -377 -500q-105 -78 -242 -161l-591 -349q-19 -11 -34 -11q-18 0 -18 16q0 31 48 76q13 12 27 22q6 4 280 167l368 218q233 145 320 251q70 85 70 164q0 48 -33 98q-52 78 -155 78q-49 0 -80 -18
q-9 -5 -13 -11q-16 -28 -16 -61q0 -76 66 -104q18 -8 33 -8q9 0 33 15q18 11 35 11q18 0 18 -16q0 -37 -61 -88q-73 -59 -140 -60q-69 0 -108 57q-25 38 -25 88z" />
    <glyph glyph-name="V" unicode="V" 
d="M-408 1094q-28 0 -30 30q0 28 227 328q185 244 239 298q27 26 59 28q43 0 58 -37q6 -13 6 -28q0 -27 -22 -57l-54 -64q-159 -185 -332 -363q-131 -135 -151 -135zM-59 1094q-26 0 -30 24q-1 3 -1 6q0 26 209 306q192 256 257 320q27 27 60 28q42 0 57 -37q6 -13 6 -28
q0 -29 -22 -57l-54 -64q-143 -168 -319 -351q-142 -147 -163 -147z" />
    <glyph glyph-name="W" unicode="W" horiz-adv-x="1990" 
d="M1312 15l-398 3q-367 0 -684 -23l-28 -2l-103 -207q-129 -246 -284 -488l-126 -189q-306 -443 -678 -836l-290 -294l-166 -156l-67 -58q-24 -18 -48 -30q-28 -14 -43 -14q-19 0 -19 17q0 37 68 103l121 112q259 247 444 454l81 93q472 542 802 1179q68 131 128 263
q83 181 235 606l100 290q160 470 265 705q195 439 466 734q69 76 146 146q89 80 133 80q19 0 19 -16q0 -39 -113 -150q-48 -46 -56 -55q-164 -177 -290 -424q-147 -288 -342 -857l-105 -305l-15 -41v-1q5 0 62 49q193 167 342 184q18 1 36 1q112 0 191 -71q65 -59 83 -152
q2 -16 5 -21q1 0 57 49q226 196 392 196q129 0 209 -94q67 -78 67 -185q0 -122 -87 -255q-90 -135 -218 -227q-109 -78 -224 -102l-47 -11h-21zM957 429q0 109 -74 183q-69 68 -174 68l-22 -1h-1q-77 -8 -166 -93q-119 -113 -199 -319l-37 -87v-6l433 23q98 8 154 35
q54 25 78 139q8 35 8 58zM1239 204l165 -2q161 0 215 52q25 24 46 82q17 51 17 101q0 152 -131 216q-58 28 -109 28l-28 -2h-1q-98 -15 -176 -114q-24 -30 -59 -85l-63 -102q-45 -76 -138 -173h88z" />
    <glyph glyph-name="Y" unicode="Y" 
d="M-1310 733q-17 0 -17 16q0 19 16 39l460 561q221 256 370 363q62 45 124 75q102 51 179 51q73 0 127 -35l15 -11l67 28q49 17 101 18q119 2 181 -82q40 -55 40 -130q0 -126 -106 -239q-89 -95 -194 -122q-31 -8 -58 -8q-79 0 -122 56q-26 34 -26 78q0 68 64 140
q55 62 103 64q18 0 18 -15q0 -17 -21 -44q-16 -22 -15 -39q6 -82 86 -99q15 -3 29 -3q75 0 89 80q3 20 3 47q0 47 -31 98q-49 80 -146 80q-165 0 -424 -302l-18 -21q-21 -24 -264 -319l-187 -228q-75 -87 -116 -96q-6 -1 -12 -1q-18 0 -19 14q0 18 16 41l435 530
q189 227 331 342l25 21q-32 19 -80 19q-168 0 -435 -314l-276 -333l-179 -219q-79 -92 -122 -100q-5 -1 -11 -1z" />
    <glyph glyph-name="asciicircum" unicode="^" 
d="M-1623 733q-18 0 -18 16q0 25 27 53l433 491q136 151 213 227q272 270 475 313q33 7 61 7q86 0 148 -49l8 -6q119 55 199 55q103 0 165 -74q48 -58 48 -140q0 -124 -109 -238q-89 -93 -194 -121q-31 -8 -58 -8q-84 0 -125 58q-23 34 -23 78q0 66 64 139q56 64 106 67
q17 0 17 -16q0 -17 -20 -43q-18 -23 -18 -44q0 -68 74 -93q22 -8 40 -8q60 0 79 44q4 8 7 19q10 31 10 62q0 53 -33 104q-49 76 -146 76q-117 0 -283 -144q-82 -72 -184 -183l-309 -348q-203 -229 -221 -247q-37 -37 -74 -45q-6 -2 -11 -2q-17 0 -17 15q0 21 26 54l465 524
q185 209 316 316l41 33q0 7 -42 19q-29 8 -53 8q-185 0 -500 -361l-37 -42q-448 -505 -462 -519q-49 -46 -85 -47z" />
    <glyph glyph-name="b" unicode="b" horiz-adv-x="1914" 
d="M1736 240l1 -59q0 -55 -87 -130q-69 -58 -113 -66q-4 -1 -7 -1q-16 0 -19 11q-3 10 -3 61q0 67 9 147l-128 -100q-162 -119 -291 -119q-137 0 -218 101q-41 52 -57 118l-87 -70q-199 -149 -355 -149q-128 0 -208 86q-71 78 -71 193q0 177 181 372q33 34 81 77h-6
q-282 0 -409 -86l-68 -51q-23 -14 -48 -14q-21 0 -21 19q0 34 60 95q117 120 313 179q142 43 305 43h44q191 0 513 -23q405 -29 830 -29q58 0 62 -7q2 -2 2 -9v-4q0 -24 -29 -58q-54 -62 -82 -117q-7 -14 -14 -29q-80 -179 -80 -381zM1034 678l-420 27q-32 1 -52 1
q-70 0 -138 -58q-72 -62 -90 -156q-5 -28 -5 -55q0 -108 75 -180q68 -65 166 -65q123 0 204 88q43 46 66 114q45 130 175 263q19 19 19 21zM1633 659l-379 7q-67 0 -123 -26q-16 -8 -22 -15q-55 -69 -63 -160q-1 -11 -1 -22q0 -63 36 -131q65 -120 206 -120q127 0 229 150
q32 47 108 193q43 84 71 123z" />
    <glyph glyph-name="e" unicode="e" horiz-adv-x="1323" 
d="M36 -16q-18 0 -18 18q0 35 53 89q68 69 204 519q224 739 411 1097q65 124 154 257q144 216 321 391l90 84q74 63 115 63q19 0 19 -15q0 -33 -52 -86l-114 -115q-100 -106 -186 -234q-141 -209 -250 -470q-128 -303 -286 -827l-32 -106l-7 -23l133 105q210 157 373 157
q151 0 236 -95q66 -73 66 -180q0 -146 -129 -304q-123 -150 -296 -231q-65 -31 -129 -46q-12 -2 -41 -14h-111q-282 0 -443 -26q-49 -8 -81 -8zM1039 439q0 113 -86 182q-74 59 -187 59q-103 0 -227 -102q-31 -25 -51 -47q-74 -82 -161 -248q-39 -74 -58 -103v-1
q116 21 383 24q129 2 170 7q124 18 165 71q52 67 52 158z" />
    <glyph glyph-name="h" unicode="h" horiz-adv-x="1202" 
d="M1022 249l2 -70q0 -53 -87 -127q-70 -59 -114 -67q-4 -1 -7 -1q-16 0 -19 11q-2 9 -2 60q1 93 10 156q-3 0 -16 -13q-247 -214 -425 -214q-134 0 -218 94q-21 24 -32 46q-19 38 -19 84q0 73 55 199q49 112 58 153q5 23 5 43q0 60 -37 86q-9 6 -18 8q-6 1 -30 1
q-122 0 -160 -23l-35 -24q-11 -5 -25 -10q-7 -3 -20 -4q-19 0 -19 17q0 36 72 106q77 76 162 112q70 30 165 34h48q54 0 76 -14q34 -22 46 -84q2 -10 2 -30q0 -56 -60 -208q-54 -146 -57 -187q0 -68 62 -126q70 -65 174 -65q85 0 176 75q19 16 30 29q55 66 123 199
q65 129 110 185q78 98 159 146q32 19 52 19q19 0 19 -17q0 -27 -54 -88q-23 -28 -29 -37q-110 -188 -122 -417q-1 -19 -1 -37z" />
    <glyph glyph-name="j" unicode="j" horiz-adv-x="1810" 
d="M1480 -1l-1 -31h2q119 0 250 83q119 76 182 185q21 34 45 34q38 0 43 -36q1 -4 1 -7q0 -15 -29 -60q-102 -160 -289 -238q-107 -45 -213 -49l-15 -2q-71 -198 -258 -343q-194 -154 -421 -187q-54 -8 -106 -8q-236 0 -406 133q-163 126 -202 326q-11 56 -11 114
q0 287 277 554q101 98 238 186q-2 0 -142 25q-163 29 -262 29q-118 0 -172 -35l-54 -36q-14 -7 -29 -13q-12 -3 -20 -3q-19 0 -19 16q0 38 72 108q106 104 235 146q24 8 48 13q57 12 135 12q70 0 407 -53q355 -56 465 -56q236 0 370 93l80 60q27 16 51 16q18 0 18 -16
q0 -41 -82 -118q-43 -40 -101 -81q-193 -137 -427 -158q-48 -4 -100 -4q-88 0 -192 12l-22 2q-120 -18 -250 -79q-69 -33 -121 -71q-109 -81 -154 -229q-21 -71 -21 -143q0 -220 152 -371q135 -135 337 -165q48 -7 97 -7q113 0 223 43q75 28 120 71q76 71 124 157
q31 57 31 65l-12 2q-122 25 -183 113q-35 51 -35 103q0 48 31 91q40 56 115 56q94 0 152 -81q48 -68 48 -168zM1394 4q0 86 -53 132q-29 25 -65 25q-24 0 -41 -21q-13 -16 -13 -40q0 -68 93 -111q46 -21 73 -21q6 0 6 36z" />
    <glyph glyph-name="n" unicode="n" horiz-adv-x="1323" 
d="M1144 242l1 -65q0 -49 -85 -123q-71 -61 -115 -69q-4 -1 -7 -1q-16 0 -19 11q-3 10 -3 72q0 76 13 161q-288 -244 -482 -244q-160 0 -243 101q-60 74 -60 182q0 95 73 216q68 111 184 209l18 15q-28 4 -102 4q-246 0 -368 -85l-69 -51q-23 -14 -47 -14q-21 0 -21 20
q0 31 62 94q80 82 200 140q171 82 405 82q77 0 352 -25q283 -27 477 -27q36 0 40 -8q1 -3 1 -8v-4q0 -23 -31 -61q-57 -68 -85 -124q-11 -23 -21 -49q-68 -176 -68 -349zM1083 659q-99 0 -355 21q-68 6 -96 6q-94 0 -177 -63q-9 -7 -16 -13q-54 -51 -66 -151q-2 -15 -2 -27
q0 -107 82 -176q74 -64 184 -64q87 0 180 62q18 12 40 28q70 51 163 234l28 55q27 48 51 82q3 5 3 6h-19z" />
    <glyph glyph-name="q" unicode="q" horiz-adv-x="1341" 
d="M-130 654q0 32 56 93q98 107 240 144q51 13 103 15h50q42 0 55 -3q20 -5 40 -18q67 -44 71 -142q1 -6 1 -11q0 -42 -17 -104l123 98q216 162 382 162q156 0 241 -100q62 -73 62 -174q0 -143 -128 -302q-119 -148 -281 -228q-62 -31 -122 -46l-55 -17q-21 -3 -110 -3
l-133 -1h-1q-109 -5 -226 -16l-28 -2l-15 -28q-485 -890 -1043 -1545q-213 -250 -438 -469q-155 -150 -211 -192q-59 -44 -90 -44q-18 0 -18 15q0 34 59 96l45 43q827 757 1489 1985l53 99q172 325 220 512q15 54 15 88q0 75 -47 114q-30 25 -76 25h-12q-120 0 -165 -31
q-28 -20 -38 -23q-14 -5 -32 -7q-19 -2 -19 17zM1050 441q0 110 -86 179q-76 60 -187 60q-82 0 -186 -70q-113 -76 -187 -201q-19 -32 -95 -187l-22 -45q44 15 366 26q37 2 61 2q226 0 283 76q53 73 53 160z" />
    <glyph glyph-name="r" unicode="r" horiz-adv-x="1978" 
d="M30 -16q-6 3 -12 9v9q0 35 53 89q68 69 204 519q224 739 411 1097q65 124 154 257q144 216 321 391l90 84q74 63 115 63q19 0 19 -15q0 -33 -52 -86l-114 -115q-100 -106 -186 -234q-235 -349 -443 -990q-58 -180 -123 -407l17 14q234 202 388 218q16 2 32 2
q158 0 235 -126q32 -53 44 -121q108 93 146 121q172 126 303 126q122 0 202 -84q75 -78 75 -195q0 -144 -119 -302q-115 -152 -275 -233q-92 -45 -193 -61l-136 2q-167 2 -341 2q-314 0 -663 -26q-103 -8 -152 -8zM957 429q0 108 -74 183q-68 69 -168 69q-142 0 -277 -201
q-39 -60 -112 -199q-34 -65 -61 -106l505 29q104 15 130 51l7 11q50 77 50 163zM1682 434q0 110 -76 182q-69 64 -171 64l-21 -1h-1q-95 -15 -169 -107q-24 -30 -102 -152q-78 -123 -149 -199l-16 -16l134 -1l308 -2h4q141 0 191 47l4 4q59 69 64 171v10z" />
    <glyph glyph-name="t" unicode="t" horiz-adv-x="1980" 
d="M-112 637q-19 -2 -19 17q0 30 54 90q97 108 236 146q49 13 100 15q9 1 59 1q149 0 164 -145q2 -15 2 -32q0 -35 -8 -71v-2q2 0 58 48q165 141 299 175q40 10 79 10q162 0 240 -133q37 -62 38 -113q98 98 221 170q131 76 228 76q116 0 197 -79q81 -80 81 -202
q0 -120 -90 -256q-161 -240 -369 -313q-72 -26 -135 -25l-136 2q-167 2 -342 2q-314 0 -663 -26q-103 -8 -152 -8q-6 3 -12 9v9q0 28 38 71q45 51 61 80q81 141 123 303q17 64 17 99q0 77 -45 116q-31 27 -77 27h-12q-123 0 -167 -31q-29 -20 -38 -24q-12 -4 -30 -6z
M965 432q0 106 -74 179q-70 69 -174 69l-23 -1h-1q-121 -20 -232 -182q-32 -46 -122 -205q-33 -59 -56 -94q-14 -21 -14 -22h2l472 25q136 8 171 64q48 75 51 167zM1689 434q0 156 -132 220q-57 27 -109 27q-10 0 -15 -1q-7 0 -13 -1q-103 -18 -179 -115q-23 -30 -96 -149
q-76 -122 -145 -193l-16 -17l129 -1l311 -2h4q157 0 201 55q60 76 60 177z" />
    <glyph glyph-name="u" unicode="u" horiz-adv-x="1183" 
d="M-130 636q0 34 58 96q98 106 238 142q57 15 116 15q93 0 156 -91q19 -27 37 -64q9 -20 11 -20q5 0 52 40q169 143 331 151q11 1 22 1q153 0 184 -101q10 -32 10 -77q0 -190 -225 -597q-494 -889 -1411 -1751q-139 -129 -153 -142q-95 -82 -137 -82q-19 0 -19 16
q0 32 55 88q6 6 165 155q168 158 337 334q533 556 879 1136l16 27l-17 16q-104 101 -188 292l-46 110q-9 22 -9 23q-1 0 -27 -47l-122 -241q-107 -219 -155 -303q-164 -288 -366 -476q-93 -87 -141 -87q-19 0 -19 17q0 36 91 126q46 45 54 55q122 140 260 415l164 331
q36 69 69 125q68 117 123 194l15 21l-39 82q-63 116 -147 116q-93 0 -141 -35q-28 -21 -42 -24q-9 -2 -20 -2q-19 0 -19 16zM858 555q0 143 -155 143q-109 0 -181 -70q3 -5 58 -142q68 -169 135 -265q23 -34 26 -34q2 0 30 65q87 192 87 303z" />
    <glyph glyph-name="w" unicode="w" horiz-adv-x="1990" 
d="M1315 15l-391 3q-263 0 -604 -16q-122 -5 -131 -10l-19 -35q-658 -1209 -1473 -2000q-155 -150 -211 -192q-59 -44 -90 -44q-18 0 -18 15q0 34 59 96l45 43q827 757 1489 1985l53 99q172 325 220 512q15 54 15 88q0 75 -47 114q-30 25 -76 25h-12q-120 0 -165 -31
q-28 -20 -38 -23q-14 -5 -32 -7q-19 -2 -19 17q0 32 56 93q98 107 240 144q51 13 103 15h50q143 0 164 -132q3 -20 3 -42q0 -44 -11 -78v-1q1 0 37 31q43 37 104 81q172 124 298 124q159 0 236 -127q31 -53 43 -120q109 93 148 122q170 125 301 125q125 0 205 -85
q73 -78 73 -194q0 -150 -127 -312q-116 -147 -273 -225q-90 -43 -189 -58h-16zM967 428q0 160 -132 225q-58 28 -110 28q-168 0 -325 -274q-38 -67 -73 -147l-28 -57l-13 -29l190 14q86 5 193 9q165 7 213 35q32 18 56 71q28 57 29 125zM1692 427q0 134 -94 205
q-65 48 -153 48l-21 -1h-1q-99 -17 -176 -114q-23 -30 -99 -151q-76 -122 -145 -193l-16 -16l142 -1q132 0 230 -2h108q82 2 140 34q5 3 9 6q27 17 54 84q22 55 22 101z" />
    <glyph glyph-name="x" unicode="x" horiz-adv-x="1914" 
d="M-188 580q0 34 60 95q117 120 313 179q142 43 305 43h44q191 0 513 -23q405 -29 830 -29q58 0 62 -7q2 -2 2 -9v-4q0 -24 -21 -47q-46 -51 -76 -104q-48 -89 -97 -238q-106 -319 -223 -552q-352 -705 -1176 -1511l-120 -116q-199 -191 -337 -311q-81 -73 -125 -73
q-18 0 -18 17q0 43 110 142q368 330 605 580q538 565 825 1105q72 137 158 341q42 101 42 119q-1 0 -56 -43q-148 -118 -268 -143q-32 -8 -67 -8q-129 0 -211 94q-46 55 -63 126q-256 -219 -443 -219q-130 0 -209 89q-69 78 -69 198q0 161 176 356q47 49 85 84h-8
q-280 0 -407 -86l-67 -50q-23 -14 -48 -14q-21 0 -21 19zM1034 678l-425 27q-23 1 -37 1q-58 0 -122 -39q-121 -74 -121 -229q0 -106 74 -178q68 -68 167 -68q94 0 184 67q41 30 71 105q47 105 80 157q45 69 110 136q19 19 19 21zM1601 659l-332 8q-140 0 -180 -68
q-2 -5 -8 -16q-36 -67 -36 -140q0 -114 80 -188q69 -63 163 -63q127 0 226 147q31 47 104 189q42 82 76 130z" />
    <glyph glyph-name="y" unicode="y" horiz-adv-x="1331" 
d="M-112 637q-19 -2 -19 17q0 30 54 90q97 108 236 146q49 13 100 15q9 1 59 1q51 0 71 -8q7 -4 17 -9q61 -35 75 -121q3 -18 3 -36q0 -41 -14 -102l18 15q131 115 269 184q75 38 136 51q35 8 77 8q158 0 243 -101q61 -73 61 -172q0 -112 -79 -234q-106 -166 -276 -267
q-96 -57 -193 -80l-49 -14q-13 -2 -83 -2h-50q-233 0 -418 -26q-58 -8 -91 -8q-17 0 -17 18q0 28 38 71q45 51 61 80q81 141 123 303q17 64 17 99q0 77 -45 116q-31 27 -77 27h-12q-123 0 -167 -31q-29 -20 -38 -24q-12 -4 -30 -6zM1046 439q0 113 -86 182q-74 59 -186 59
q-97 0 -214 -88q-14 -11 -25 -21q-71 -63 -171 -237q-65 -113 -82 -138l-12 -17q59 15 408 25q131 3 154 7q138 21 177 93q2 2 8 15q29 58 29 120z" />
    <glyph glyph-name="z" unicode="z" horiz-adv-x="1323" 
d="M-167 561q-21 0 -21 20q0 31 62 94q80 82 200 140q171 82 405 82q77 0 352 -25q283 -27 477 -27q36 0 40 -8q1 -3 1 -8v-4q0 -30 -56 -91q-23 -24 -27 -32q-53 -92 -108 -260q-73 -223 -128 -351q-63 -146 -151 -307q-308 -562 -864 -1149q-173 -183 -379 -378l-336 -311
q-83 -73 -126 -73q-18 0 -18 17q0 42 105 138q369 330 610 584q538 565 825 1105q73 138 160 347q49 118 49 141q-1 0 -36 -27q-40 -32 -96 -69q-194 -122 -326 -125q-154 0 -239 98q-64 74 -64 178q0 178 202 380q35 35 73 67q-24 4 -102 4q-246 0 -368 -85l-69 -51
q-23 -14 -47 -14zM1084 659q-98 0 -354 21q-67 6 -95 6q-63 0 -134 -34q-47 -22 -73 -54q-52 -74 -57 -165q0 -111 89 -182q75 -59 177 -59q105 0 208 80q44 35 76 77q43 57 104 177q41 82 77 132q0 1 -18 1z" />
    <glyph glyph-name="quotesinglbase" unicode="&#x201a;" 
d="M-1540 -75q-31 0 -33 28q0 17 23 36q17 14 75 54q434 306 572 364q25 11 37 11q44 0 61 -36q5 -12 5 -26q0 -49 -73 -88q-7 -4 -9 -5q-214 -125 -468 -254q-165 -84 -190 -84zM-1262 -145q-28 0 -31 25q-1 2 -1 4q0 18 26 38q15 13 71 52q402 281 554 355q39 19 54 19
q47 0 62 -36q5 -11 5 -26q0 -34 -35 -63q-50 -41 -311 -177l-80 -42q-288 -149 -314 -149z" />
    <glyph glyph-name="florin" unicode="&#x192;" 
d="M-1273 1800q0 44 36 59q11 4 22 4h6q37 0 84 -53l30 -34q276 -311 489 -590l25 -33q10 -18 10 -29q0 -24 -21 -29q-4 -1 -9 -1q-17 0 -38 19l-18 16q-192 181 -408 407q-195 205 -206 244q-2 9 -2 20zM-925 1800q0 44 36 59q11 4 22 4h6q37 0 84 -53l30 -34
q276 -311 489 -590l25 -33q10 -18 10 -29q0 -24 -21 -29q-4 -1 -9 -1q-17 0 -37 18l-18 17q-289 271 -583 599q-34 38 -34 72z" />
    <glyph glyph-name="quotedblbase" unicode="&#x201e;" 
d="M-1122 1824q0 40 33 56q12 6 26 6q45 0 83 -53q234 -313 415 -599l56 -87q6 -9 6 -23q-4 -28 -29 -31q-21 0 -47 31q-162 181 -383 457q-131 164 -149 199q-11 24 -11 44zM-774 1821q0 43 34 60q12 5 25 5q45 0 83 -53q194 -259 361 -510q116 -174 116 -199
q-4 -28 -29 -31q-21 0 -47 31q-162 181 -383 457q-131 164 -149 199q-11 24 -11 41z" />
    <glyph glyph-name="ellipsis" unicode="&#x2026;" 
d="M-1200 1734q0 34 28 52q14 8 31 8q39 0 79 -40l25 -25q259 -259 508 -554q28 -38 29 -52q0 -22 -21 -28q-4 -1 -8 -1q-17 0 -38 17q-222 187 -455 408q-154 146 -170 178q-8 19 -8 37zM-852 1734q0 34 28 52q14 8 31 8q39 0 79 -40l25 -25q259 -259 508 -554
q28 -38 29 -52q0 -27 -29 -29q-17 0 -38 17q-215 181 -449 402q-160 151 -176 184q-8 19 -8 37z" />
    <glyph glyph-name="dagger" unicode="&#x2020;" 
d="M-960 1683q0 40 36 56q12 6 25 6q40 0 93 -55l46 -48q213 -219 419 -464q30 -43 31 -55q0 -29 -29 -29q-16 0 -38 17l-17 14q-226 192 -420 375q-126 120 -138 148q-8 17 -8 35zM-612 1685q0 46 47 58q8 2 14 2q40 0 89 -50l50 -53q213 -219 419 -464q30 -42 31 -55
q0 -29 -29 -29q-16 0 -38 17l-17 14q-244 208 -433 389q-114 109 -125 134q-8 19 -8 37z" />
    <glyph glyph-name="perthousand" unicode="&#x2030;" 
d="M-2117 -1035q-26 0 -30 25q-1 2 -1 4q0 17 34 47q15 14 59 50q274 223 742 552q57 34 84 37q42 0 58 -35q6 -12 6 -25q0 -38 -44 -73q-9 -8 -78 -56q-345 -240 -627 -415q-178 -111 -203 -111zM-952 -389q44 0 60 -36q5 -12 5 -25q0 -42 -68 -92l-106 -72
q-346 -239 -606 -399q-149 -91 -172 -91q-25 0 -30 22q-1 3 -1 6q0 21 33 47q245 204 660 504q145 104 177 122q25 14 48 14z" />
    <glyph glyph-name="Scaron" unicode="&#x160;" 
d="M-1705 -841q-30 0 -33 24q-1 3 -1 5q0 21 36 46q226 159 482 320q200 124 232 124q50 0 64 -38q4 -11 4 -23q0 -38 -38 -66q-15 -11 -42 -27q-251 -145 -519 -283q-162 -82 -185 -82zM-1426 -911q-27 0 -33 21q-1 4 -1 8q0 21 37 47q252 179 530 349l136 82q28 13 49 13
q45 0 60 -37q5 -11 5 -25q0 -49 -70 -87q-213 -124 -505 -276q-185 -95 -208 -95z" />
    <glyph glyph-name="guilsinglleft" unicode="&#x2039;" 
d="M-903 -318q49 0 62 -40q3 -10 3 -22q0 -46 -91 -117l-25 -20q-242 -202 -442 -349q-124 -91 -144 -91q-25 0 -30 23q-1 3 -1 6q0 17 31 49l26 27q258 258 524 487q44 37 65 44q11 3 22 3zM-623 -387q41 0 58 -34q5 -13 5 -27q0 -36 -31 -67l-85 -72q-258 -215 -453 -358
q-113 -82 -132 -82q-24 0 -30 21q-1 4 -1 8q0 17 30 49l26 27q247 248 524 487q49 43 80 47q5 1 9 1z" />
    <glyph glyph-name="bullet" unicode="&#x2022;" horiz-adv-x="1062" 
d="M-379 -1236q69 24 159 25q80 0 240 -38q162 -39 248 -39q124 0 238 85l85 65q34 23 60 23q18 -6 19 -16q0 -38 -86 -122q-127 -122 -285 -191q-120 -52 -224 -52q-88 0 -252 39q-157 37 -236 38q-90 0 -120 -24q-66 -52 -101 -52h-3q-16 0 -16 16q0 15 35 77
q135 239 377 495q185 198 463 442l117 104l185 171q156 148 263 279q171 210 171 381q0 117 -89 183q-62 45 -140 45q-145 0 -243 -129q-44 -57 -118 -207q-61 -124 -100 -182q-71 -106 -160 -166q-46 -30 -73 -30q-17 0 -17 16q0 20 20 45q58 72 106 181q23 52 46 117
q24 66 130 410q157 512 306 827q100 214 214 384q144 216 321 391l90 84q70 61 115 64q19 0 19 -16q0 -35 -79 -115l-104 -104l-28 -31q-166 -191 -288 -432q-179 -356 -392 -1061l-14 -48q106 106 239 164q106 46 205 46q122 0 198 -84q63 -72 63 -176q0 -205 -211 -480
q-166 -216 -480 -504l-371 -332q-273 -249 -417 -442l-38 -53q-44 -61 -47 -71z" />
    <glyph glyph-name="scaron" unicode="&#x161;" horiz-adv-x="1331" 
d="M-112 637q-19 -2 -19 17q0 30 54 90q97 108 236 146q49 13 100 15q9 1 59 1q51 0 71 -8q7 -4 17 -9q61 -35 75 -121q3 -18 3 -36q0 -41 -14 -102l18 15q131 115 269 184q75 38 136 51q35 8 77 8q157 0 243 -101q61 -73 61 -173q0 -185 -216 -397l-13 -12q117 -29 179 -62
q125 -67 176 -191q21 -55 21 -120q0 -129 -108 -263q-116 -145 -290 -211q-106 -40 -216 -40q-157 0 -278 70q-83 48 -117 117q-21 42 -21 83q0 79 83 171q67 74 124 89q10 3 19 3q20 0 20 -19q0 -21 -24 -52q-20 -25 -20 -45q0 -70 80 -136q105 -87 264 -95q13 -1 27 -1
q101 0 182 34q32 14 41 27q32 46 32 123q0 161 -163 264q-52 32 -104 49q-111 38 -323 44q-29 1 -58 1q-267 0 -508 -57q-19 -4 -27 -4q-18 0 -18 18q0 28 38 71q45 51 61 80q81 141 123 303q17 64 17 99q0 77 -45 116q-31 27 -77 27h-12q-123 0 -167 -31q-29 -20 -38 -24
q-12 -4 -30 -6zM1046 439q0 115 -88 184q-74 57 -184 57q-97 0 -214 -88q-14 -11 -25 -21q-67 -59 -149 -200q-77 -133 -109 -183h1l157 24q146 19 302 19q80 2 88 2q136 11 165 43q4 4 11 15q45 69 45 148z" />
    <glyph glyph-name="Ydieresis" unicode="&#x178;" 
d="M-1191 -998q-25 7 -29 30q0 34 245 352q135 177 213 266q5 6 7 8q29 27 62 27q43 0 58 -38q4 -12 4 -25q0 -33 -32 -72q-125 -150 -357 -395q-122 -128 -146 -144q-12 -9 -25 -9zM-913 -1068q-24 0 -28 24q-1 3 -1 6q0 32 236 340q137 180 221 277l9 9q30 28 62 28
q38 0 55 -33q7 -13 7 -29q0 -34 -33 -73q-137 -163 -366 -404q-111 -118 -136 -136q-13 -9 -26 -9z" />
    <glyph glyph-name="cent" unicode="&#xa2;" horiz-adv-x="262" 
d="M180 717h-98q-120 0 -152 -20q-2 -1 -13 -9q-54 -40 -84 -40q-21 0 -21 20q0 29 53 86q96 104 231 136q14 4 29 6q53 8 130 8h98q125 0 159 24q2 2 5 4q54 41 83 41q23 0 23 -19q0 -29 -52 -86q-95 -104 -229 -137l-32 -6q-53 -8 -130 -8z" />
    <glyph glyph-name="guillemotleft" unicode="&#xab;" horiz-adv-x="1914" 
d="M446 639l-3 -30h8q158 0 319 190q77 92 217 316q142 227 215 317q163 204 323 224q18 2 37 2q140 0 296 -115q92 -67 127 -125q10 -17 10 -28q0 -16 -18 -16q-17 0 -66 27q-86 48 -169 48q-176 0 -370 -202q-87 -91 -247 -307q-156 -211 -233 -293q-167 -178 -312 -178
q-87 0 -173 47l-22 13l-34 -15q-16 -4 -37 -4q-74 0 -112 59q-21 33 -21 73q0 68 53 107q34 25 80 25q72 0 110 -57q22 -34 22 -78zM303 196q28 -5 61 -5q90 0 155 21q134 45 459 265l152 101q229 142 377 159l32 2q138 5 256 -59q83 -46 168 -128q66 -63 66 -95
q0 -16 -17 -16q-16 0 -61 25q-92 52 -204 56h-20q-130 0 -280 -59q-139 -54 -371 -183q-321 -178 -468 -214q-64 -15 -129 -15q-102 0 -194 45q-20 10 -38 22q-40 -18 -61 -20h-12q-66 0 -106 52q-26 34 -26 80q0 74 59 112q34 21 73 21q66 0 106 -51q26 -35 26 -82
q0 -34 -3 -34z" />
    <glyph glyph-name="registered" unicode="&#xae;" horiz-adv-x="696" 
d="M221 1644q0 131 114 270q119 145 293 216q115 46 230 46q204 0 327 -112q111 -101 111 -253q0 -221 -193 -452q-81 -97 -249 -253q-129 -120 -177 -176q-129 -153 -129 -311q0 -78 63 -110q28 -14 65 -14q23 0 60 24q31 21 55 21q18 0 18 -16q0 -35 -66 -103
q-93 -95 -196 -125q-14 -5 -28 -7q-16 -2 -40 -2q-85 0 -130 62q-28 38 -28 90q0 219 202 459q73 86 188 195l72 67q129 120 179 184q107 137 107 291q0 100 -63 185q-43 58 -111 95q-99 54 -212 54q-114 0 -208 -40q-26 -57 -26 -110q0 -66 34 -113q26 -36 31 -54
q4 -15 4 -32q0 -84 -72 -131q-42 -28 -88 -28q-76 0 -114 75q-23 46 -23 108zM284 102q0 87 79 122q24 11 40 11h8q78 0 116 -58q22 -32 22 -75q0 -73 -60 -111q-33 -21 -73 -21q-67 0 -106 53q-26 34 -26 79z" />
    <glyph glyph-name="guillemotright" unicode="&#xbb;" horiz-adv-x="1914" 
d="M1646 609q-4 15 -4 33q0 66 51 106q35 26 81 26q74 0 112 -60q21 -33 21 -72q0 -66 -51 -106q-35 -26 -82 -26q-37 0 -62 16q-5 3 -9 3l-61 -32q-66 -29 -144 -29q-143 0 -314 181q-76 80 -236 290q-166 219 -258 312q-197 199 -374 199q-90 0 -174 -48q-48 -27 -66 -28
q-17 0 -17 16q0 33 77 106q115 108 244 155q68 26 126 26q175 0 355 -212q86 -101 237 -337q145 -229 215 -316q154 -191 292 -202q9 -1 18 -1q9 -1 16 -1t7 1zM6 457q0 31 72 100q107 102 227 141q41 15 87 17h14q181 0 445 -193q-73 54 108 -81q228 -171 334 -213
q37 -15 76 -23q37 -7 75 -7l27 1q-3 23 -3 32q0 89 84 122q27 10 48 10q92 0 124 -86q9 -26 9 -47q0 -91 -86 -123q-26 -9 -47 -9q-29 0 -65 17q-4 2 -7 3q-88 -49 -154 -57q-22 -3 -47 -3q-130 0 -314 102q-31 17 -232 140q-107 66 -188 108q-194 101 -335 101
q-97 0 -176 -44q-41 -24 -58 -24q-18 0 -18 16z" />
    <glyph glyph-name="questiondown" unicode="&#xbf;" horiz-adv-x="1097" 
d="M339 -33q-151 0 -178 104q-7 27 -7 63q0 182 240 608l67 117q479 813 1325 1586q116 106 158 125q19 8 35 8q18 0 18 -16q0 -38 -71 -108l-53 -48q-762 -691 -1197 -1422l-15 -24l15 -14q93 -102 151 -308l59 -229q44 -146 114 -194q8 -5 17 -10q25 -13 53 -13
q39 0 72 31l50 48q19 16 41 30q43 30 73 30q15 -7 16 -19q-4 -36 -59 -94l-93 -85q-171 -149 -286 -149q-107 0 -172 114q-6 10 -8 10l-14 -10q-184 -131 -351 -131zM531 174q63 0 122 23q12 5 12 7q-82 312 -105 374q-22 58 -52 104q-1 0 -33 -67q-93 -195 -94 -306
q0 -121 120 -133q14 -2 30 -2z" />
    <glyph glyph-name="Adieresis" unicode="&#xc4;" horiz-adv-x="1384" 
d="M353 358q0 175 144 327q120 126 280 178q77 26 145 26q164 0 251 -142l25 -46l50 52q95 92 145 92q18 0 18 -17q0 -24 -20 -47q-47 -52 -79 -111q-47 -88 -96 -234l-67 -204q-265 -719 -1013 -1532q-195 -213 -438 -443l-337 -311q-77 -69 -125 -73q-19 0 -19 16
q0 44 110 143q350 318 549 522q684 701 991 1388l25 57q0 6 -168 16q-81 5 -139 5q-56 0 -218 -18q-79 -8 -130 -8q-120 0 -229 34q-19 12 -21 21q0 46 76 110q64 53 101 56q14 0 35 -7q45 -16 196 -28l-25 63q-17 53 -17 115zM1024 405q0 73 -37 150q-70 147 -225 147
q-78 0 -134 -24q-25 -12 -36 -27q-38 -53 -38 -140q0 -96 47 -177q50 -87 141 -117q40 -13 211 -20h11q0 6 31 92q29 80 29 116z" />
    <glyph glyph-name="AE" unicode="&#xc6;" 
d="M550 956q21 0 21 -18q0 -36 -61 -98q-112 -114 -296 -163q-70 -19 -145 -25q-73 -5 -194 -5l-49 1q-13 13 -14 20q0 49 85 116q52 41 83 48q6 2 61 2h32q280 0 384 73l51 38q19 11 42 11z" />
    <glyph glyph-name="Ccedilla" unicode="&#xc7;" horiz-adv-x="696" 
d="M251 350q-15 2 -17 15q0 8 8 64q97 644 392 1472q41 112 50 126q44 71 123 121q44 29 68 29q18 0 19 -17q0 -8 -16 -54q-292 -805 -396 -1428q-10 -61 -19 -122q-6 -42 -23 -65q-14 -20 -42 -48q-68 -70 -126 -89q-12 -4 -21 -4zM128 102q0 87 77 122q25 11 42 11h8
q79 0 118 -61q20 -33 20 -72q0 -91 -86 -123q-26 -9 -47 -9q-66 0 -106 52q-26 34 -26 80z" />
    <glyph glyph-name="Oslash" unicode="&#xd8;" 
d="M-968 1425q0 38 55 85q46 40 77 40q14 0 17 -15q6 -40 8 -47q9 -25 29 -50q49 -61 132 -61q142 0 227 81q11 10 20 21q42 50 88 67q11 4 19 4q16 0 16 -14v-5q0 -26 -60 -90q-109 -117 -252 -170q-87 -33 -174 -33q-125 0 -180 106q-22 44 -22 81z" />
    <glyph glyph-name="Ugrave" unicode="&#xd9;" 
d="M-631 1424q0 40 58 88q45 38 75 38q15 0 16 -15q1 -2 1 -7q3 -58 42 -102q44 -49 122 -49q132 0 216 83l49 51q45 38 76 39q17 0 17 -17q0 -28 -61 -94q-107 -116 -248 -169q-85 -32 -170 -32q-125 0 -174 109q-19 42 -19 77z" />
    <glyph glyph-name="Uacute" unicode="&#xda;" 
d="M-446 1423q0 41 58 90q45 37 73 37q16 0 18 -12v-11q0 -82 64 -125q37 -26 86 -26q120 0 190 75l39 46q43 45 84 52q4 1 7 1q18 0 18 -17q0 -31 -61 -99q-103 -116 -238 -167q-78 -29 -155 -29q-102 0 -152 75q-31 46 -31 110z" />
    <glyph glyph-name="Ucircumflex" unicode="&#xdb;" 
d="M-139 1537l-2 -30q0 -71 58 -108q33 -23 76 -23q114 0 159 73q1 2 3 5q26 47 80 80q26 16 44 16q17 0 17 -17q0 -32 -58 -101q-98 -118 -225 -167q-68 -26 -135 -26q-107 0 -149 80q-19 37 -19 83q0 32 9 50q17 33 61 68q36 30 63 30q18 0 18 -13z" />
    <glyph glyph-name="agrave" unicode="&#xe0;" 
d="M-1558 1855q0 113 82 176q55 42 127 42q239 0 545 -410q79 -107 176 -264q379 -621 382 -627q6 -12 6 -23q0 -16 -18 -16q-27 0 -75 39q-21 18 -34 36q-7 10 -288 470l-131 212q-96 150 -129 195q-183 250 -317 250q-82 0 -134 -63q-42 -50 -42 -123q0 -66 28 -105
q11 -14 55 -15q48 0 84 37q26 28 26 64v12q-29 41 -29 55q0 17 16 17q44 0 100 -60q62 -67 63 -128q0 -70 -59 -109q-38 -26 -86 -26q-98 0 -199 83q-108 89 -139 208q-10 37 -10 73z" />
    <glyph glyph-name="aacute" unicode="&#xe1;" 
d="M-1403 1842q0 137 115 197q46 24 78 24h10q322 0 710 -689l337 -603q6 -13 6 -22q0 -16 -18 -16q-34 0 -85 50q-19 17 -31 35q-11 15 -176 315q-142 258 -234 410q-121 202 -228 306q-24 23 -43 36q-56 40 -115 40q-48 0 -98 -33q-78 -52 -78 -156q0 -43 18 -85
q9 -20 18 -23q25 -9 45 -9q75 0 103 67q8 18 8 31v11q-28 38 -28 54q7 16 19 17q27 0 76 -40q82 -68 82 -147q0 -74 -67 -111q-36 -20 -80 -20q-94 0 -194 82q-107 88 -139 203q-11 39 -11 76z" />
    <glyph glyph-name="acircumflex" unicode="&#xe2;" 
d="M-1403 1842q0 137 115 197q46 24 78 24h10q322 0 710 -689l337 -603q6 -13 6 -22q0 -16 -18 -16q-34 0 -85 50q-19 17 -31 35q-11 15 -176 315q-142 258 -234 410q-121 202 -228 306q-24 23 -43 36q-56 40 -115 40q-48 0 -98 -33q-78 -52 -78 -156q0 -43 18 -85
q9 -20 18 -23q25 -9 45 -9q75 0 103 67q8 18 8 31v11q-28 38 -28 54q7 16 19 17q27 0 76 -40q82 -68 82 -147q0 -74 -67 -111q-36 -20 -80 -20q-94 0 -194 82q-107 88 -139 203q-11 39 -11 76z" />
    <glyph glyph-name="atilde" unicode="&#xe3;" 
d="M-1163 2132q0 110 75 177q58 53 140 53q167 0 336 -217q75 -96 136 -219q79 -161 159 -415l125 -402q110 -354 110 -360q0 -16 -18 -16q-28 0 -77 40q-35 29 -47 58q-6 13 -114 362q-171 548 -223 678q-41 105 -103 209q-61 101 -101 126q-27 17 -64 17q-97 0 -150 -80
q-35 -52 -35 -117q0 -49 22 -92q3 -7 5 -7q15 -7 39 -7q65 0 95 49q11 17 13 35v7q-22 31 -22 47q0 17 17 17q42 0 96 -57q59 -63 59 -117q0 -77 -87 -109q-30 -11 -55 -11q-91 0 -188 80q-105 86 -135 202q-8 35 -8 69z" />
    <glyph glyph-name="egrave" unicode="&#xe8;" 
d="M-1353 1828q0 124 99 227q82 84 176 100q17 3 32 3q112 0 151 -87q12 -27 12 -48q0 -56 -62 -120q-54 -57 -94 -57q-18 0 -18 15v3q0 11 18 40q6 11 6 16q0 39 -42 71q-36 28 -83 28q-27 0 -30 -5q-1 -1 -2 -5q-14 -36 -14 -76q0 -54 50 -113q101 -120 339 -142
q40 -3 82 -3q97 0 176 17q19 4 32 4q17 0 17 -16q0 -22 -29 -60q-9 -12 -18 -20q-585 -498 -634 -498q-22 5 -25 24q0 39 353 335q91 76 91 78q-1 0 -10 -1q-16 -2 -67 -2q-240 0 -386 98q-118 80 -120 194z" />
    <glyph glyph-name="eacute" unicode="&#xe9;" 
d="M-427 1616q31 3 63 8q17 0 17 -17q0 -29 -59 -91l-51 -52q-290 -290 -378 -351q-17 -11 -23 -11q-21 0 -24 23v3q0 33 280 318l29 29l-27 1q-117 2 -227 48q-157 65 -188 195q-2 12 -2 37q0 127 103 230q80 80 170 96q16 3 31 3q91 0 139 -60q26 -34 26 -75
q0 -58 -63 -122q-53 -54 -92 -55q-19 0 -19 16q0 18 25 52q-11 90 -105 103q-12 2 -26 2q-13 0 -23 -2q-17 -52 -17 -82q0 -81 87 -151q99 -79 256 -95q15 -2 50 -2t48 2z" />
    <glyph glyph-name="ecircumflex" unicode="&#xea;" 
d="M-465 1496q-104 0 -210 59q-125 70 -148 171q-4 19 -4 39l1 32v1q19 127 128 220q34 29 73 49q52 27 103 27h2q50 0 98 -28q65 -37 65 -106q0 -58 -63 -122q-55 -56 -95 -56q-17 0 -17 16q0 20 25 52v8q-4 43 -43 72q-34 25 -89 25q-11 0 -16 -1q-15 0 -22 -62
q-1 -13 -1 -24q0 -76 78 -141q75 -61 193 -84q51 -10 104 -10q38 -1 41 -8q2 -3 2 -7q0 -32 -180 -231q-177 -197 -265 -266q-24 -19 -33 -19q-23 0 -23 24q0 29 160 211q112 129 136 159z" />
    <glyph glyph-name="edieresis" unicode="&#xeb;" 
d="M-368 1486l-152 -9q-42 -1 -87 -1q-208 0 -327 34q-83 24 -141 65q-96 67 -114 153q-2 12 -2 37q0 127 103 230q81 81 171 96q16 3 30 3h3q53 0 102 -30q60 -36 60 -104q0 -59 -64 -124q-54 -54 -94 -54q-16 0 -16 17t25 51q-11 88 -100 103q-15 2 -32 2q-12 0 -16 -1
q-16 0 -22 -64q-1 -12 -1 -21q0 -114 157 -191q56 -28 108 -40q108 -24 293 -24q136 0 268 15q26 3 44 3q17 0 17 -15q0 -29 -174 -224q-182 -203 -270 -272q-25 -19 -34 -19q-22 0 -23 24q0 28 186 245q72 85 102 115z" />
  </font>
</defs>
</svg>
